<?xml version="1.0" encoding="UTF-8"?>
<svg id="Layer_1" data-name="Layer 1" xmlns="http://www.w3.org/2000/svg" viewBox="0 0 128 128">
  <path d="M78.36,17.88c5.69,4.47,8.68,11.09,9.12,18.28.5,8.17.51,19.98,0,28.15-1.9,30.75-45.1,30.75-47,0-.51-8.17-.5-19.98,0-28.15,1.19-19.25,22.34-30.48,37.88-18.28Z"/>
  <path d="M68.91,100.98v4.64h14.06c.51,0,2.31.88,2.77,1.29,2.72,2.47,1.76,6.94-1.67,8.22l-39.39.08c-4.48-.52-5.54-6.75-1.6-8.88.26-.14,1.75-.71,1.9-.71h14.06v-4.64c-16.7-1.68-31.34-16.96-32.2-33.77-.18-3.48.05-8.01,4.75-7.89,5.32.14,4.5,5.52,4.9,8.96,1,8.47,7.52,16.88,15.04,20.62,15.64,7.77,34.99-.77,39.31-17.73.68-2.68.34-4.94.73-7.39.92-5.84,8.97-5.83,9.51-.08.47,5.01-1.18,11.36-3.24,15.92-5.16,11.4-16.45,19.98-28.95,21.35Z"/>
</svg>