<?xml version="1.0" encoding="UTF-8"?>
<svg id="Layer_2" data-name="Layer 2" xmlns="http://www.w3.org/2000/svg" viewBox="0 0 27.11 31.68">
  <defs>
    <style>
      .cls-1 {
        fill: #008bf1;
      }
    </style>
  </defs>
  <g id="Layer_2-2" data-name="Layer 2">
    <path class="cls-1" d="M27.1,19.63c0,1.81-.32,3.46-.95,4.97-.6,1.47-1.49,2.74-2.66,3.82-1.17,1.04-2.59,1.84-4.27,2.41-1.67,.57-3.57,.85-5.67,.85s-4-.28-5.67-.85-3.1-1.37-4.27-2.41c-1.17-1.07-2.08-2.34-2.71-3.82-.6-1.51-.9-3.16-.9-4.97V.45c.37-.07,.95-.15,1.76-.25C2.55,.07,3.32,0,4.06,0s1.44,.07,2.01,.2c.6,.1,1.1,.3,1.51,.6,.4,.3,.7,.72,.9,1.26,.2,.54,.3,1.24,.3,2.11v15.31c0,1.61,.44,2.86,1.31,3.77,.9,.9,2.06,1.36,3.46,1.36s2.59-.45,3.46-1.36c.87-.9,1.31-2.16,1.31-3.77V.45c.37-.07,.95-.15,1.76-.25,.8-.13,1.57-.2,2.31-.2s1.44,.07,2.01,.2c.6,.1,1.1,.3,1.51,.6,.4,.3,.7,.72,.9,1.26,.2,.54,.3,1.24,.3,2.11v15.47h0Z"/>
  </g>
</svg>