<?xml version="1.0" encoding="UTF-8"?>
<svg id="Layer_1" data-name="Layer 1" xmlns="http://www.w3.org/2000/svg" viewBox="0 0 128 128">
  <path d="M83.41,73.74c6.96,7.3,7.6,17.32,6.79,27.03-.64,7.69-6.33,13.37-14.01,14.01-16.03,1.33-33.89-1.02-50.12-.01-13.86-2.06-14.45-13.62-13.7-25.23.56-8.7,5.57-17,13.46-20.82,1.89-.91,6.42-2.52,8.4-2.33.92.09,4.91,2.33,6.42,2.82,6.53,2.13,12.81,2.28,19.46.49,1.95-.53,7.46-3.3,8.47-3.33,4.87-.14,11.55,3.94,14.83,7.38Z"/>
  <path d="M68.32,54.65c-9.21,9.04-25.1,9.13-34.15-.15-17.62-18.07-.44-47.25,23.71-40.78,17.97,4.81,23.64,27.97,10.43,40.93Z"/>
  <rect x="76.91" y="48.98" width="38.92" height="9.58" rx="4.79" ry="4.79"/>
  <rect x="76.91" y="48.98" width="38.92" height="9.58" rx="4.79" ry="4.79" transform="translate(42.6 150.14) rotate(-90)"/>
</svg>