<?xml version="1.0" encoding="UTF-8"?>
<svg id="Layer_1" data-name="Layer 1" xmlns="http://www.w3.org/2000/svg" viewBox="0 0 128 128">
  <defs>
    <style>
      .cls-1 {
        fill: none;
        stroke: #000;
        stroke-linecap: round;
        stroke-miterlimit: 10;
        stroke-width: 8px;
      }
    </style>
  </defs>
  <g>
    <path d="M86.63,30.77l-43.64,43.64c-1.38-2.88-2.26-6.25-2.5-10.1-.51-8.17-.51-19.97,0-28.15,1.18-19.25,22.34-30.48,37.87-18.28,4.24,3.32,6.97,7.84,8.27,12.89Z"/>
    <path d="M87.86,50.75c-.01,4.82-.14,9.62-.38,13.56-1.25,20.27-20.44,27.18-33.92,20.74l34.3-34.3Z"/>
    <path d="M36.51,68.29c.38,3.21,1.55,6.41,3.26,9.34l-6.93,6.93c-3.48-5.17-5.66-11.16-5.98-17.35-.18-3.47.05-8.01,4.75-7.88,5.31.14,4.5,5.51,4.9,8.96Z"/>
    <path d="M97.87,79.63c-5.16,11.4-16.45,19.97-28.96,21.35v4.64h14.07c.5,0,2.31.88,2.76,1.29,2.73,2.47,1.76,6.94-1.67,8.22l-39.38.07c-4.49-.51-5.54-6.75-1.6-8.87.26-.15,1.75-.71,1.9-.71h14.06v-4.64c-5.58-.56-10.93-2.64-15.62-5.8l6.92-6.92c.4.23.8.45,1.21.65,15.63,7.76,34.99-.77,39.31-17.73.68-2.68.34-4.94.73-7.39.92-5.84,8.97-5.83,9.51-.08.47,5.01-1.18,11.36-3.24,15.92Z"/>
  </g>
  <line class="cls-1" x1="16.16" y1="111.84" x2="111.84" y2="16.16"/>
</svg>