<?xml version="1.0" encoding="UTF-8"?>
<svg id="Layer_1" data-name="Layer 1" xmlns="http://www.w3.org/2000/svg" viewBox="0 0 128 128">
  <path d="M48.3,23.33c.04.89-.43,2.47-.63,3.41-1.14,5.42-2.81,12.95-4.53,18.11-2.62,7.88-9.28,2.82-14.68,2.27-.45.27-1.21,4.4-1.36,5.2-1.25,6.89-1.34,14.52-.32,21.45.22,1.48.85,5.71,1.45,6.84.11.2.24.43.48.49.55.14,7.25-2.42,8.97-2.42,2.9,0,4.6,1.9,5.46,4.46,1.71,5.09,3.39,12.75,4.52,18.11.72,3.4,1.14,6.36-2.67,8.2-1.78.86-9.72,2.78-11.6,2.58-6.28-.68-11.29-5.87-14.52-10.93-11.95-18.74-11.96-55.44,0-74.19,3.24-5.07,8.24-10.25,14.52-10.93,1.91-.21,9.97,1.76,11.76,2.67s3.06,2.75,3.15,4.69Z"/>
  <path d="M118.09,23.33c.04.89-.43,2.47-.63,3.41-1.14,5.42-2.81,12.95-4.53,18.11-2.62,7.88-9.28,2.82-14.68,2.27-.45.27-1.21,4.4-1.36,5.2-1.25,6.89-1.34,14.52-.32,21.45.22,1.48.85,5.71,1.45,6.84.11.2.24.43.48.49.55.14,7.25-2.42,8.97-2.42,2.9,0,4.6,1.9,5.46,4.46,1.71,5.09,3.39,12.75,4.52,18.11.72,3.4,1.14,6.36-2.67,8.2-1.78.86-9.72,2.78-11.6,2.58-6.28-.68-11.29-5.87-14.52-10.93-11.95-18.74-11.96-55.44,0-74.19,3.24-5.07,8.24-10.25,14.52-10.93,1.91-.21,9.97,1.76,11.76,2.67s3.06,2.75,3.15,4.69Z"/>
  <g>
    <path d="M61.84,51.24c.28-1.65,2.42-2.35,3.72-1.37l12.5,12.47c.88.89.88,2.43,0,3.31l-12.42,12.41c-.91.7-2.52.72-3.23-.25-.13-.18-.56-.91-.56-1.06v-5.73h-16.07c-1.18,0-2.58-1.14-2.8-2.31.16-2.89-.32-6.24-.04-9.08.11-1.06.84-2.07,1.84-2.44.13-.05.93-.24,1-.24h16.07c.21-1.72-.28-4.09,0-5.73Z"/>
    <path d="M37.39,57c1.81-.2,3.32.56,3.48,2.51.26,3.03-.13,6.51-.09,9.57-.63,2.73-5.49,2.67-5.85-.46-.33-2.93.22-6.49.03-9.49.32-1.25,1.13-1.99,2.42-2.13Z"/>
    <path d="M32.68,57.16c.36.22.73.97.74,1.39-.29,3.45.39,7.53,0,10.9-.23,2.02-2.65,2.32-3.3.41v-11.58c.25-1.22,1.48-1.77,2.56-1.11Z"/>
  </g>
</svg>